<mxfile host="Electron" modified="2024-02-08T11:23:41.135Z" agent="Mozilla/5.0 (Windows NT 10.0; Win64; x64) AppleWebKit/537.36 (KHTML, like Gecko) draw.io/23.0.2 Chrome/120.0.6099.109 Electron/28.1.0 Safari/537.36" etag="JpW-1JG2H96KbViMv7P6" version="23.0.2" type="device" pages="4">
  <diagram name="Current" id="N0ejmbKmr9tKSVpGbkYn">
    <mxGraphModel dx="1434" dy="844" grid="1" gridSize="10" guides="1" tooltips="1" connect="1" arrows="1" fold="1" page="1" pageScale="1" pageWidth="827" pageHeight="1169" math="0" shadow="0">
      <root>
        <mxCell id="0" />
        <mxCell id="1" parent="0" />
        <mxCell id="FmiuR0aUevo5eEmyA2Dj-1" value="Platform" style="swimlane;" parent="1" vertex="1">
          <mxGeometry x="50" y="50" width="590" height="210" as="geometry" />
        </mxCell>
        <mxCell id="FmiuR0aUevo5eEmyA2Dj-3" value="&lt;font style=&quot;font-size: 14px;&quot; face=&quot;Times New Roman&quot;&gt;&lt;b&gt;Actual edge module version&lt;/b&gt;&lt;/font&gt;" style="text;html=1;strokeColor=none;fillColor=none;align=center;verticalAlign=middle;whiteSpace=wrap;rounded=0;" parent="FmiuR0aUevo5eEmyA2Dj-1" vertex="1">
          <mxGeometry x="10" y="40" width="180" height="30" as="geometry" />
        </mxCell>
        <mxCell id="FmiuR0aUevo5eEmyA2Dj-4" value="&lt;font color=&quot;#ff0000&quot; face=&quot;Times New Roman&quot; style=&quot;font-size: 14px;&quot;&gt;1.0.2&lt;/font&gt;" style="text;html=1;strokeColor=none;fillColor=none;align=center;verticalAlign=middle;whiteSpace=wrap;rounded=0;" parent="FmiuR0aUevo5eEmyA2Dj-1" vertex="1">
          <mxGeometry x="180" y="40" width="60" height="30" as="geometry" />
        </mxCell>
        <mxCell id="IVaixgnmeH6Vu6zaEPgB-2" value="Update" style="rounded=1;fillColor=#0057D8;strokeColor=none;html=1;whiteSpace=wrap;fontColor=#ffffff;align=center;verticalAlign=middle;fontStyle=0;fontSize=12;sketch=0;" parent="FmiuR0aUevo5eEmyA2Dj-1" vertex="1">
          <mxGeometry x="249" y="43.5" width="61" height="23" as="geometry" />
        </mxCell>
        <mxCell id="FmiuR0aUevo5eEmyA2Dj-5" value="" style="image;points=[];aspect=fixed;html=1;align=center;shadow=0;dashed=0;image=img/lib/allied_telesis/computer_and_terminals/Personal_Computer_Wireless.svg;" parent="1" vertex="1">
          <mxGeometry x="80" y="360" width="88.32" height="90" as="geometry" />
        </mxCell>
        <mxCell id="FmiuR0aUevo5eEmyA2Dj-6" value="User laptop" style="text;html=1;strokeColor=none;fillColor=none;align=center;verticalAlign=middle;whiteSpace=wrap;rounded=0;" parent="1" vertex="1">
          <mxGeometry x="80" y="460" width="60" height="30" as="geometry" />
        </mxCell>
        <mxCell id="FmiuR0aUevo5eEmyA2Dj-7" value="" style="endArrow=classic;html=1;rounded=0;strokeColor=#00FF00;" parent="1" edge="1">
          <mxGeometry width="50" height="50" relative="1" as="geometry">
            <mxPoint x="120" y="350" as="sourcePoint" />
            <mxPoint x="120" y="260" as="targetPoint" />
          </mxGeometry>
        </mxCell>
        <mxCell id="FmiuR0aUevo5eEmyA2Dj-8" value="" style="endArrow=classic;html=1;rounded=0;entryX=0.827;entryY=-0.011;entryDx=0;entryDy=0;entryPerimeter=0;fillColor=#FF0000;strokeColor=#000000;" parent="1" target="FmiuR0aUevo5eEmyA2Dj-5" edge="1">
          <mxGeometry width="50" height="50" relative="1" as="geometry">
            <mxPoint x="180" y="130" as="sourcePoint" />
            <mxPoint x="170" y="390" as="targetPoint" />
          </mxGeometry>
        </mxCell>
        <mxCell id="FmiuR0aUevo5eEmyA2Dj-9" value="" style="endArrow=classic;html=1;rounded=0;" parent="1" edge="1">
          <mxGeometry width="50" height="50" relative="1" as="geometry">
            <mxPoint x="180" y="440" as="sourcePoint" />
            <mxPoint x="440" y="460" as="targetPoint" />
          </mxGeometry>
        </mxCell>
        <mxCell id="FmiuR0aUevo5eEmyA2Dj-10" value="" style="image;points=[];aspect=fixed;html=1;align=center;shadow=0;dashed=0;image=img/lib/allied_telesis/computer_and_terminals/Personal_Computer_with_Server.svg;" parent="1" vertex="1">
          <mxGeometry x="470" y="410" width="90" height="90" as="geometry" />
        </mxCell>
        <mxCell id="FmiuR0aUevo5eEmyA2Dj-11" value="Edge module" style="text;html=1;strokeColor=none;fillColor=none;align=center;verticalAlign=middle;whiteSpace=wrap;rounded=0;" parent="1" vertex="1">
          <mxGeometry x="500" y="520" width="60" height="30" as="geometry" />
        </mxCell>
        <mxCell id="FmiuR0aUevo5eEmyA2Dj-12" value="" style="endArrow=classic;html=1;rounded=0;strokeColor=#FF0000;" parent="1" edge="1">
          <mxGeometry width="50" height="50" relative="1" as="geometry">
            <mxPoint x="450" y="420" as="sourcePoint" />
            <mxPoint x="170" y="390" as="targetPoint" />
          </mxGeometry>
        </mxCell>
        <mxCell id="FmiuR0aUevo5eEmyA2Dj-14" value="" style="endArrow=classic;html=1;rounded=0;entryX=0.5;entryY=1;entryDx=0;entryDy=0;strokeColor=#FF0000;" parent="1" target="FmiuR0aUevo5eEmyA2Dj-4" edge="1">
          <mxGeometry width="50" height="50" relative="1" as="geometry">
            <mxPoint x="180" y="360" as="sourcePoint" />
            <mxPoint x="230" y="310" as="targetPoint" />
          </mxGeometry>
        </mxCell>
        <mxCell id="FmiuR0aUevo5eEmyA2Dj-16" value="https://edge-module/current" style="text;html=1;strokeColor=none;fillColor=none;align=center;verticalAlign=middle;whiteSpace=wrap;rounded=0;rotation=5;" parent="1" vertex="1">
          <mxGeometry x="194" y="460" width="220" height="30" as="geometry" />
        </mxCell>
        <mxCell id="IVaixgnmeH6Vu6zaEPgB-1" value="Update plugin" style="rounded=1;fillColor=#0057D8;strokeColor=none;html=1;whiteSpace=wrap;fontColor=#ffffff;align=center;verticalAlign=middle;fontStyle=0;fontSize=12;sketch=0;" parent="1" vertex="1">
          <mxGeometry x="379" y="93.5" width="91" height="23" as="geometry" />
        </mxCell>
      </root>
    </mxGraphModel>
  </diagram>
  <diagram id="kPMm9D3qRm_3Ly8L5bvw" name="Update module">
    <mxGraphModel dx="1434" dy="878" grid="1" gridSize="10" guides="1" tooltips="1" connect="1" arrows="1" fold="1" page="1" pageScale="1" pageWidth="827" pageHeight="1169" math="0" shadow="0">
      <root>
        <mxCell id="0" />
        <mxCell id="1" parent="0" />
        <mxCell id="z9anLcdXG8-NbUGlv-f6-1" value="Platform" style="swimlane;" vertex="1" parent="1">
          <mxGeometry x="50" y="50" width="590" height="210" as="geometry" />
        </mxCell>
        <mxCell id="z9anLcdXG8-NbUGlv-f6-2" value="&lt;font style=&quot;font-size: 14px;&quot; face=&quot;Times New Roman&quot;&gt;&lt;b&gt;Actual edge module version&lt;/b&gt;&lt;/font&gt;" style="text;html=1;strokeColor=none;fillColor=none;align=center;verticalAlign=middle;whiteSpace=wrap;rounded=0;" vertex="1" parent="z9anLcdXG8-NbUGlv-f6-1">
          <mxGeometry x="10" y="40" width="180" height="30" as="geometry" />
        </mxCell>
        <mxCell id="z9anLcdXG8-NbUGlv-f6-3" value="&lt;font color=&quot;#ff0000&quot; face=&quot;Times New Roman&quot; style=&quot;font-size: 14px;&quot;&gt;1.0.2&lt;/font&gt;" style="text;html=1;strokeColor=none;fillColor=none;align=center;verticalAlign=middle;whiteSpace=wrap;rounded=0;" vertex="1" parent="z9anLcdXG8-NbUGlv-f6-1">
          <mxGeometry x="180" y="40" width="60" height="30" as="geometry" />
        </mxCell>
        <mxCell id="z9anLcdXG8-NbUGlv-f6-14" value="Update" style="rounded=1;fillColor=#0057D8;strokeColor=none;html=1;whiteSpace=wrap;fontColor=#ffffff;align=center;verticalAlign=middle;fontStyle=0;fontSize=12;sketch=0;" vertex="1" parent="z9anLcdXG8-NbUGlv-f6-1">
          <mxGeometry x="240" y="43.5" width="70" height="23" as="geometry" />
        </mxCell>
        <mxCell id="z9anLcdXG8-NbUGlv-f6-41" value="" style="endArrow=classic;html=1;rounded=0;" edge="1" parent="z9anLcdXG8-NbUGlv-f6-1">
          <mxGeometry width="50" height="50" relative="1" as="geometry">
            <mxPoint x="290" y="80" as="sourcePoint" />
            <mxPoint x="130" y="270" as="targetPoint" />
          </mxGeometry>
        </mxCell>
        <mxCell id="z9anLcdXG8-NbUGlv-f6-4" value="" style="image;points=[];aspect=fixed;html=1;align=center;shadow=0;dashed=0;image=img/lib/allied_telesis/computer_and_terminals/Personal_Computer_Wireless.svg;" vertex="1" parent="1">
          <mxGeometry x="90.84" y="801" width="88.32" height="90" as="geometry" />
        </mxCell>
        <mxCell id="z9anLcdXG8-NbUGlv-f6-5" value="User laptop" style="text;html=1;strokeColor=none;fillColor=none;align=center;verticalAlign=middle;whiteSpace=wrap;rounded=0;" vertex="1" parent="1">
          <mxGeometry x="105" y="911" width="60" height="30" as="geometry" />
        </mxCell>
        <mxCell id="z9anLcdXG8-NbUGlv-f6-9" value="" style="image;points=[];aspect=fixed;html=1;align=center;shadow=0;dashed=0;image=img/lib/allied_telesis/computer_and_terminals/Personal_Computer_with_Server.svg;" vertex="1" parent="1">
          <mxGeometry x="495" y="801" width="90" height="90" as="geometry" />
        </mxCell>
        <mxCell id="z9anLcdXG8-NbUGlv-f6-10" value="Edge module" style="text;html=1;strokeColor=none;fillColor=none;align=center;verticalAlign=middle;whiteSpace=wrap;rounded=0;" vertex="1" parent="1">
          <mxGeometry x="525" y="911" width="60" height="30" as="geometry" />
        </mxCell>
        <mxCell id="z9anLcdXG8-NbUGlv-f6-15" value="Platform" style="swimlane;" vertex="1" parent="1">
          <mxGeometry x="50" y="501" width="590" height="210" as="geometry" />
        </mxCell>
        <mxCell id="z9anLcdXG8-NbUGlv-f6-16" value="&lt;font style=&quot;font-size: 14px;&quot; face=&quot;Times New Roman&quot;&gt;&lt;b&gt;Actual edge module version&lt;/b&gt;&lt;/font&gt;" style="text;html=1;strokeColor=none;fillColor=none;align=center;verticalAlign=middle;whiteSpace=wrap;rounded=0;" vertex="1" parent="z9anLcdXG8-NbUGlv-f6-15">
          <mxGeometry x="10" y="40" width="180" height="30" as="geometry" />
        </mxCell>
        <mxCell id="z9anLcdXG8-NbUGlv-f6-17" value="&lt;font color=&quot;#ff0000&quot; face=&quot;Times New Roman&quot; style=&quot;font-size: 14px;&quot;&gt;1.0.2&lt;/font&gt;" style="text;html=1;strokeColor=none;fillColor=none;align=center;verticalAlign=middle;whiteSpace=wrap;rounded=0;" vertex="1" parent="z9anLcdXG8-NbUGlv-f6-15">
          <mxGeometry x="180" y="40" width="60" height="30" as="geometry" />
        </mxCell>
        <mxCell id="z9anLcdXG8-NbUGlv-f6-18" value="Update" style="rounded=1;fillColor=#5D9AD8;strokeColor=none;html=1;whiteSpace=wrap;fontColor=#ffffff;align=center;verticalAlign=middle;fontStyle=0;fontSize=12;sketch=0;" vertex="1" parent="z9anLcdXG8-NbUGlv-f6-15">
          <mxGeometry x="240" y="43.5" width="70" height="23" as="geometry" />
        </mxCell>
        <mxCell id="z9anLcdXG8-NbUGlv-f6-27" value="" style="html=1;shadow=0;dashed=0;shape=mxgraph.bootstrap.rrect;rSize=5;fillColor=#ffffff;strokeColor=#999999;" vertex="1" parent="z9anLcdXG8-NbUGlv-f6-15">
          <mxGeometry x="240" y="66.5" width="140" height="100" as="geometry" />
        </mxCell>
        <mxCell id="z9anLcdXG8-NbUGlv-f6-28" value="Latest (1.0.3)" style="fillColor=#0085FC;strokeColor=none;align=left;spacing=20;fontSize=14;fontColor=#ffffff;" vertex="1" parent="z9anLcdXG8-NbUGlv-f6-27">
          <mxGeometry width="140" height="30" relative="1" as="geometry">
            <mxPoint y="5" as="offset" />
          </mxGeometry>
        </mxCell>
        <mxCell id="z9anLcdXG8-NbUGlv-f6-29" value="1.0.2" style="fillColor=#FFFFFF;strokeColor=none;fontColor=#757E85;align=left;spacing=20;fontSize=14;sketch=0;" vertex="1" parent="z9anLcdXG8-NbUGlv-f6-27">
          <mxGeometry width="140" height="30" relative="1" as="geometry">
            <mxPoint y="35" as="offset" />
          </mxGeometry>
        </mxCell>
        <mxCell id="z9anLcdXG8-NbUGlv-f6-30" value="1.0.1" style="fillColor=none;strokeColor=none;align=left;spacing=20;fontSize=14;" vertex="1" parent="z9anLcdXG8-NbUGlv-f6-27">
          <mxGeometry width="140" height="30" relative="1" as="geometry">
            <mxPoint y="65" as="offset" />
          </mxGeometry>
        </mxCell>
        <mxCell id="pm7ADp41Jtylh09NEbMZ-2" value="Update plugin" style="rounded=1;fillColor=#0057D8;strokeColor=none;html=1;whiteSpace=wrap;fontColor=#ffffff;align=center;verticalAlign=middle;fontStyle=0;fontSize=12;sketch=0;" vertex="1" parent="z9anLcdXG8-NbUGlv-f6-15">
          <mxGeometry x="330" y="43.5" width="91" height="23" as="geometry" />
        </mxCell>
        <mxCell id="z9anLcdXG8-NbUGlv-f6-36" value="" style="image;points=[];aspect=fixed;html=1;align=center;shadow=0;dashed=0;image=img/lib/allied_telesis/computer_and_terminals/Personal_Computer_Wireless.svg;" vertex="1" parent="1">
          <mxGeometry x="80" y="300" width="88.32" height="90" as="geometry" />
        </mxCell>
        <mxCell id="z9anLcdXG8-NbUGlv-f6-37" value="User laptop" style="text;html=1;strokeColor=none;fillColor=none;align=center;verticalAlign=middle;whiteSpace=wrap;rounded=0;" vertex="1" parent="1">
          <mxGeometry x="94.16" y="410" width="60" height="30" as="geometry" />
        </mxCell>
        <mxCell id="z9anLcdXG8-NbUGlv-f6-38" value="" style="image;points=[];aspect=fixed;html=1;align=center;shadow=0;dashed=0;image=img/lib/allied_telesis/computer_and_terminals/Personal_Computer_with_Server.svg;" vertex="1" parent="1">
          <mxGeometry x="484.16" y="300" width="90" height="90" as="geometry" />
        </mxCell>
        <mxCell id="z9anLcdXG8-NbUGlv-f6-39" value="Edge module" style="text;html=1;strokeColor=none;fillColor=none;align=center;verticalAlign=middle;whiteSpace=wrap;rounded=0;" vertex="1" parent="1">
          <mxGeometry x="514.16" y="410" width="60" height="30" as="geometry" />
        </mxCell>
        <mxCell id="z9anLcdXG8-NbUGlv-f6-40" value="" style="endArrow=classic;html=1;rounded=0;" edge="1" parent="1">
          <mxGeometry width="50" height="50" relative="1" as="geometry">
            <mxPoint x="168.32" y="300" as="sourcePoint" />
            <mxPoint x="310" y="120" as="targetPoint" />
          </mxGeometry>
        </mxCell>
        <mxCell id="z9anLcdXG8-NbUGlv-f6-42" value="" style="endArrow=classic;html=1;rounded=0;" edge="1" parent="1">
          <mxGeometry width="50" height="50" relative="1" as="geometry">
            <mxPoint x="179.16" y="340" as="sourcePoint" />
            <mxPoint x="469.16" y="340" as="targetPoint" />
          </mxGeometry>
        </mxCell>
        <mxCell id="EQMPFcR7eUZTkTrIln8r-1" value="https://edge-module/listversions" style="text;html=1;strokeColor=none;fillColor=none;align=center;verticalAlign=middle;whiteSpace=wrap;rounded=0;rotation=0;" vertex="1" parent="1">
          <mxGeometry x="235" y="310" width="220" height="30" as="geometry" />
        </mxCell>
        <mxCell id="EQMPFcR7eUZTkTrIln8r-2" value="" style="endArrow=classic;html=1;rounded=0;strokeColor=#0000FF;" edge="1" parent="1">
          <mxGeometry width="50" height="50" relative="1" as="geometry">
            <mxPoint x="470" y="370" as="sourcePoint" />
            <mxPoint x="185" y="370" as="targetPoint" />
          </mxGeometry>
        </mxCell>
        <mxCell id="EQMPFcR7eUZTkTrIln8r-3" value="" style="endArrow=classic;html=1;rounded=0;strokeColor=#0000FF;entryX=0;entryY=1;entryDx=0;entryDy=0;" edge="1" parent="1" target="z9anLcdXG8-NbUGlv-f6-18">
          <mxGeometry width="50" height="50" relative="1" as="geometry">
            <mxPoint x="180" y="400" as="sourcePoint" />
            <mxPoint x="380" y="550" as="targetPoint" />
          </mxGeometry>
        </mxCell>
        <mxCell id="EQMPFcR7eUZTkTrIln8r-4" value="" style="endArrow=classic;html=1;rounded=0;entryX=0;entryY=0.5;entryDx=0;entryDy=0;" edge="1" parent="1" target="z9anLcdXG8-NbUGlv-f6-28">
          <mxGeometry width="50" height="50" relative="1" as="geometry">
            <mxPoint x="140" y="800" as="sourcePoint" />
            <mxPoint x="440" y="630" as="targetPoint" />
          </mxGeometry>
        </mxCell>
        <mxCell id="EQMPFcR7eUZTkTrIln8r-5" value="" style="endArrow=classic;html=1;rounded=0;" edge="1" parent="1" target="z9anLcdXG8-NbUGlv-f6-4">
          <mxGeometry width="50" height="50" relative="1" as="geometry">
            <mxPoint x="280" y="630" as="sourcePoint" />
            <mxPoint x="440" y="630" as="targetPoint" />
          </mxGeometry>
        </mxCell>
        <mxCell id="EQMPFcR7eUZTkTrIln8r-6" value="" style="endArrow=classic;html=1;rounded=0;" edge="1" parent="1">
          <mxGeometry width="50" height="50" relative="1" as="geometry">
            <mxPoint x="193.32" y="845.5" as="sourcePoint" />
            <mxPoint x="483.32000000000005" y="845.5" as="targetPoint" />
          </mxGeometry>
        </mxCell>
        <mxCell id="EQMPFcR7eUZTkTrIln8r-7" value="https://edge-module/update" style="text;html=1;strokeColor=none;fillColor=none;align=center;verticalAlign=middle;whiteSpace=wrap;rounded=0;rotation=0;" vertex="1" parent="1">
          <mxGeometry x="235" y="815.5" width="220" height="30" as="geometry" />
        </mxCell>
        <mxCell id="EQMPFcR7eUZTkTrIln8r-9" value="" style="endArrow=classic;html=1;rounded=0;" edge="1" parent="1">
          <mxGeometry width="50" height="50" relative="1" as="geometry">
            <mxPoint x="200" y="871" as="sourcePoint" />
            <mxPoint x="480" y="871" as="targetPoint" />
          </mxGeometry>
        </mxCell>
        <mxCell id="EQMPFcR7eUZTkTrIln8r-10" value="https://edge-module/update/1.0.1" style="text;html=1;strokeColor=none;fillColor=none;align=center;verticalAlign=middle;whiteSpace=wrap;rounded=0;rotation=0;" vertex="1" parent="1">
          <mxGeometry x="234" y="881" width="220" height="30" as="geometry" />
        </mxCell>
        <mxCell id="pm7ADp41Jtylh09NEbMZ-1" value="Update plugin" style="rounded=1;fillColor=#0057D8;strokeColor=none;html=1;whiteSpace=wrap;fontColor=#ffffff;align=center;verticalAlign=middle;fontStyle=0;fontSize=12;sketch=0;" vertex="1" parent="1">
          <mxGeometry x="379" y="93.5" width="91" height="23" as="geometry" />
        </mxCell>
      </root>
    </mxGraphModel>
  </diagram>
  <diagram name="Update plugin" id="zY9JcfXJQpHsqkgmuRJ3">
    <mxGraphModel dx="1434" dy="878" grid="1" gridSize="10" guides="1" tooltips="1" connect="1" arrows="1" fold="1" page="1" pageScale="1" pageWidth="827" pageHeight="1169" math="0" shadow="0">
      <root>
        <mxCell id="-j5uNoU2B_lZleQ7sITj-0" />
        <mxCell id="-j5uNoU2B_lZleQ7sITj-1" parent="-j5uNoU2B_lZleQ7sITj-0" />
        <mxCell id="-j5uNoU2B_lZleQ7sITj-2" value="Platform" style="swimlane;" vertex="1" parent="-j5uNoU2B_lZleQ7sITj-1">
          <mxGeometry x="50" y="50" width="590" height="210" as="geometry" />
        </mxCell>
        <mxCell id="-j5uNoU2B_lZleQ7sITj-3" value="&lt;font style=&quot;font-size: 14px;&quot; face=&quot;Times New Roman&quot;&gt;&lt;b&gt;Actual edge module version&lt;/b&gt;&lt;/font&gt;" style="text;html=1;strokeColor=none;fillColor=none;align=center;verticalAlign=middle;whiteSpace=wrap;rounded=0;" vertex="1" parent="-j5uNoU2B_lZleQ7sITj-2">
          <mxGeometry x="10" y="40" width="180" height="30" as="geometry" />
        </mxCell>
        <mxCell id="-j5uNoU2B_lZleQ7sITj-4" value="&lt;font color=&quot;#ff0000&quot; face=&quot;Times New Roman&quot; style=&quot;font-size: 14px;&quot;&gt;1.0.2&lt;/font&gt;" style="text;html=1;strokeColor=none;fillColor=none;align=center;verticalAlign=middle;whiteSpace=wrap;rounded=0;" vertex="1" parent="-j5uNoU2B_lZleQ7sITj-2">
          <mxGeometry x="180" y="40" width="60" height="30" as="geometry" />
        </mxCell>
        <mxCell id="-j5uNoU2B_lZleQ7sITj-5" value="Update" style="rounded=1;fillColor=#0057D8;strokeColor=none;html=1;whiteSpace=wrap;fontColor=#ffffff;align=center;verticalAlign=middle;fontStyle=0;fontSize=12;sketch=0;" vertex="1" parent="-j5uNoU2B_lZleQ7sITj-2">
          <mxGeometry x="240" y="43.5" width="70" height="23" as="geometry" />
        </mxCell>
        <mxCell id="-j5uNoU2B_lZleQ7sITj-6" value="" style="endArrow=classic;html=1;rounded=0;" edge="1" parent="-j5uNoU2B_lZleQ7sITj-2">
          <mxGeometry width="50" height="50" relative="1" as="geometry">
            <mxPoint x="390" y="80" as="sourcePoint" />
            <mxPoint x="130" y="270" as="targetPoint" />
          </mxGeometry>
        </mxCell>
        <mxCell id="_0PAUNvRuVWzBaWhgp6Y-0" value="Update plugin" style="rounded=1;fillColor=#0057D8;strokeColor=none;html=1;whiteSpace=wrap;fontColor=#ffffff;align=center;verticalAlign=middle;fontStyle=0;fontSize=12;sketch=0;" vertex="1" parent="-j5uNoU2B_lZleQ7sITj-2">
          <mxGeometry x="329" y="43.5" width="91" height="23" as="geometry" />
        </mxCell>
        <mxCell id="-j5uNoU2B_lZleQ7sITj-7" value="" style="image;points=[];aspect=fixed;html=1;align=center;shadow=0;dashed=0;image=img/lib/allied_telesis/computer_and_terminals/Personal_Computer_Wireless.svg;" vertex="1" parent="-j5uNoU2B_lZleQ7sITj-1">
          <mxGeometry x="90.84" y="801" width="88.32" height="90" as="geometry" />
        </mxCell>
        <mxCell id="-j5uNoU2B_lZleQ7sITj-8" value="User laptop" style="text;html=1;strokeColor=none;fillColor=none;align=center;verticalAlign=middle;whiteSpace=wrap;rounded=0;" vertex="1" parent="-j5uNoU2B_lZleQ7sITj-1">
          <mxGeometry x="105" y="911" width="60" height="30" as="geometry" />
        </mxCell>
        <mxCell id="-j5uNoU2B_lZleQ7sITj-9" value="" style="image;points=[];aspect=fixed;html=1;align=center;shadow=0;dashed=0;image=img/lib/allied_telesis/computer_and_terminals/Personal_Computer_with_Server.svg;" vertex="1" parent="-j5uNoU2B_lZleQ7sITj-1">
          <mxGeometry x="495" y="801" width="90" height="90" as="geometry" />
        </mxCell>
        <mxCell id="-j5uNoU2B_lZleQ7sITj-10" value="Edge module" style="text;html=1;strokeColor=none;fillColor=none;align=center;verticalAlign=middle;whiteSpace=wrap;rounded=0;" vertex="1" parent="-j5uNoU2B_lZleQ7sITj-1">
          <mxGeometry x="525" y="911" width="60" height="30" as="geometry" />
        </mxCell>
        <mxCell id="-j5uNoU2B_lZleQ7sITj-11" value="Platform" style="swimlane;" vertex="1" parent="-j5uNoU2B_lZleQ7sITj-1">
          <mxGeometry x="50" y="501" width="590" height="210" as="geometry" />
        </mxCell>
        <mxCell id="-j5uNoU2B_lZleQ7sITj-12" value="&lt;font style=&quot;font-size: 14px;&quot; face=&quot;Times New Roman&quot;&gt;&lt;b&gt;Actual edge module version&lt;/b&gt;&lt;/font&gt;" style="text;html=1;strokeColor=none;fillColor=none;align=center;verticalAlign=middle;whiteSpace=wrap;rounded=0;" vertex="1" parent="-j5uNoU2B_lZleQ7sITj-11">
          <mxGeometry x="10" y="40" width="180" height="30" as="geometry" />
        </mxCell>
        <mxCell id="-j5uNoU2B_lZleQ7sITj-13" value="&lt;font color=&quot;#ff0000&quot; face=&quot;Times New Roman&quot; style=&quot;font-size: 14px;&quot;&gt;1.0.2&lt;/font&gt;" style="text;html=1;strokeColor=none;fillColor=none;align=center;verticalAlign=middle;whiteSpace=wrap;rounded=0;" vertex="1" parent="-j5uNoU2B_lZleQ7sITj-11">
          <mxGeometry x="180" y="40" width="60" height="30" as="geometry" />
        </mxCell>
        <mxCell id="-j5uNoU2B_lZleQ7sITj-14" value="Update" style="rounded=1;fillColor=#0057D8;strokeColor=none;html=1;whiteSpace=wrap;fontColor=#ffffff;align=center;verticalAlign=middle;fontStyle=0;fontSize=12;sketch=0;" vertex="1" parent="-j5uNoU2B_lZleQ7sITj-11">
          <mxGeometry x="240" y="43.5" width="70" height="23" as="geometry" />
        </mxCell>
        <mxCell id="-j5uNoU2B_lZleQ7sITj-15" value="" style="html=1;shadow=0;dashed=0;shape=mxgraph.bootstrap.rrect;rSize=5;fillColor=#ffffff;strokeColor=#999999;" vertex="1" parent="-j5uNoU2B_lZleQ7sITj-11">
          <mxGeometry x="322" y="66.5" width="140" height="100" as="geometry" />
        </mxCell>
        <mxCell id="-j5uNoU2B_lZleQ7sITj-16" value="Test plugin" style="fillColor=#0085FC;strokeColor=none;align=left;spacing=20;fontSize=14;fontColor=#ffffff;" vertex="1" parent="-j5uNoU2B_lZleQ7sITj-15">
          <mxGeometry width="140" height="30" relative="1" as="geometry">
            <mxPoint y="5" as="offset" />
          </mxGeometry>
        </mxCell>
        <mxCell id="-j5uNoU2B_lZleQ7sITj-18" value="EDF plugin" style="fillColor=none;strokeColor=none;align=left;spacing=20;fontSize=14;" vertex="1" parent="-j5uNoU2B_lZleQ7sITj-15">
          <mxGeometry width="140" height="30" relative="1" as="geometry">
            <mxPoint y="65" as="offset" />
          </mxGeometry>
        </mxCell>
        <mxCell id="ytBiUZ0hHsX5z8XTCSbQ-1" value="MRI plugin" style="fillColor=none;strokeColor=none;align=left;spacing=20;fontSize=14;" vertex="1" parent="-j5uNoU2B_lZleQ7sITj-15">
          <mxGeometry y="35" width="140" height="30" as="geometry" />
        </mxCell>
        <mxCell id="ytBiUZ0hHsX5z8XTCSbQ-0" value="Update plugin" style="rounded=1;fillColor=#5D9AD8;strokeColor=none;html=1;whiteSpace=wrap;fontColor=#ffffff;align=center;verticalAlign=middle;fontStyle=0;fontSize=12;sketch=0;" vertex="1" parent="-j5uNoU2B_lZleQ7sITj-11">
          <mxGeometry x="320" y="43.5" width="91" height="23" as="geometry" />
        </mxCell>
        <mxCell id="-j5uNoU2B_lZleQ7sITj-19" value="" style="image;points=[];aspect=fixed;html=1;align=center;shadow=0;dashed=0;image=img/lib/allied_telesis/computer_and_terminals/Personal_Computer_Wireless.svg;" vertex="1" parent="-j5uNoU2B_lZleQ7sITj-1">
          <mxGeometry x="80" y="300" width="88.32" height="90" as="geometry" />
        </mxCell>
        <mxCell id="-j5uNoU2B_lZleQ7sITj-20" value="User laptop" style="text;html=1;strokeColor=none;fillColor=none;align=center;verticalAlign=middle;whiteSpace=wrap;rounded=0;" vertex="1" parent="-j5uNoU2B_lZleQ7sITj-1">
          <mxGeometry x="94.16" y="410" width="60" height="30" as="geometry" />
        </mxCell>
        <mxCell id="-j5uNoU2B_lZleQ7sITj-21" value="" style="image;points=[];aspect=fixed;html=1;align=center;shadow=0;dashed=0;image=img/lib/allied_telesis/computer_and_terminals/Personal_Computer_with_Server.svg;" vertex="1" parent="-j5uNoU2B_lZleQ7sITj-1">
          <mxGeometry x="484.16" y="300" width="90" height="90" as="geometry" />
        </mxCell>
        <mxCell id="-j5uNoU2B_lZleQ7sITj-22" value="Edge module" style="text;html=1;strokeColor=none;fillColor=none;align=center;verticalAlign=middle;whiteSpace=wrap;rounded=0;" vertex="1" parent="-j5uNoU2B_lZleQ7sITj-1">
          <mxGeometry x="514.16" y="410" width="60" height="30" as="geometry" />
        </mxCell>
        <mxCell id="-j5uNoU2B_lZleQ7sITj-23" value="" style="endArrow=classic;html=1;rounded=0;" edge="1" parent="-j5uNoU2B_lZleQ7sITj-1">
          <mxGeometry width="50" height="50" relative="1" as="geometry">
            <mxPoint x="168.32" y="300" as="sourcePoint" />
            <mxPoint x="400" y="130" as="targetPoint" />
          </mxGeometry>
        </mxCell>
        <mxCell id="-j5uNoU2B_lZleQ7sITj-24" value="" style="endArrow=classic;html=1;rounded=0;" edge="1" parent="-j5uNoU2B_lZleQ7sITj-1">
          <mxGeometry width="50" height="50" relative="1" as="geometry">
            <mxPoint x="179.16" y="340" as="sourcePoint" />
            <mxPoint x="469.16" y="340" as="targetPoint" />
          </mxGeometry>
        </mxCell>
        <mxCell id="-j5uNoU2B_lZleQ7sITj-25" value="https://edge-module/plugins" style="text;html=1;strokeColor=none;fillColor=none;align=center;verticalAlign=middle;whiteSpace=wrap;rounded=0;rotation=0;" vertex="1" parent="-j5uNoU2B_lZleQ7sITj-1">
          <mxGeometry x="235" y="310" width="220" height="30" as="geometry" />
        </mxCell>
        <mxCell id="-j5uNoU2B_lZleQ7sITj-26" value="" style="endArrow=classic;html=1;rounded=0;strokeColor=#0000FF;" edge="1" parent="-j5uNoU2B_lZleQ7sITj-1">
          <mxGeometry width="50" height="50" relative="1" as="geometry">
            <mxPoint x="470" y="370" as="sourcePoint" />
            <mxPoint x="185" y="370" as="targetPoint" />
          </mxGeometry>
        </mxCell>
        <mxCell id="-j5uNoU2B_lZleQ7sITj-27" value="" style="endArrow=classic;html=1;rounded=0;strokeColor=#0000FF;entryX=0;entryY=0;entryDx=0;entryDy=0;" edge="1" parent="-j5uNoU2B_lZleQ7sITj-1" target="-j5uNoU2B_lZleQ7sITj-16">
          <mxGeometry width="50" height="50" relative="1" as="geometry">
            <mxPoint x="180" y="400" as="sourcePoint" />
            <mxPoint x="380" y="550" as="targetPoint" />
          </mxGeometry>
        </mxCell>
        <mxCell id="-j5uNoU2B_lZleQ7sITj-28" value="" style="endArrow=classic;html=1;rounded=0;entryX=0;entryY=0.5;entryDx=0;entryDy=0;" edge="1" parent="-j5uNoU2B_lZleQ7sITj-1" target="-j5uNoU2B_lZleQ7sITj-16">
          <mxGeometry width="50" height="50" relative="1" as="geometry">
            <mxPoint x="140" y="800" as="sourcePoint" />
            <mxPoint x="440" y="630" as="targetPoint" />
          </mxGeometry>
        </mxCell>
        <mxCell id="-j5uNoU2B_lZleQ7sITj-29" value="" style="endArrow=classic;html=1;rounded=0;" edge="1" parent="-j5uNoU2B_lZleQ7sITj-1" target="-j5uNoU2B_lZleQ7sITj-7">
          <mxGeometry width="50" height="50" relative="1" as="geometry">
            <mxPoint x="350" y="670" as="sourcePoint" />
            <mxPoint x="440" y="630" as="targetPoint" />
          </mxGeometry>
        </mxCell>
        <mxCell id="-j5uNoU2B_lZleQ7sITj-30" value="" style="endArrow=classic;html=1;rounded=0;" edge="1" parent="-j5uNoU2B_lZleQ7sITj-1">
          <mxGeometry width="50" height="50" relative="1" as="geometry">
            <mxPoint x="193.32" y="845.5" as="sourcePoint" />
            <mxPoint x="483.32000000000005" y="845.5" as="targetPoint" />
          </mxGeometry>
        </mxCell>
        <mxCell id="-j5uNoU2B_lZleQ7sITj-31" value="https://edge-module/updateplugin/testplugin" style="text;html=1;strokeColor=none;fillColor=none;align=center;verticalAlign=middle;whiteSpace=wrap;rounded=0;rotation=0;" vertex="1" parent="-j5uNoU2B_lZleQ7sITj-1">
          <mxGeometry x="235" y="815.5" width="235" height="30" as="geometry" />
        </mxCell>
      </root>
    </mxGraphModel>
  </diagram>
  <diagram id="-DKhF2ob3WNv7TcGlJHd" name="Pagina-4">
    <mxGraphModel dx="2261" dy="844" grid="1" gridSize="10" guides="1" tooltips="1" connect="1" arrows="1" fold="1" page="1" pageScale="1" pageWidth="827" pageHeight="1169" math="0" shadow="0">
      <root>
        <mxCell id="0" />
        <mxCell id="1" parent="0" />
        <mxCell id="SXAzHjsnaT3QSdxms3eh-39" style="edgeStyle=orthogonalEdgeStyle;rounded=0;orthogonalLoop=1;jettySize=auto;html=1;exitX=0.5;exitY=1;exitDx=0;exitDy=0;" parent="1" source="SXAzHjsnaT3QSdxms3eh-1" target="SXAzHjsnaT3QSdxms3eh-38" edge="1">
          <mxGeometry relative="1" as="geometry" />
        </mxCell>
        <mxCell id="SXAzHjsnaT3QSdxms3eh-42" style="edgeStyle=orthogonalEdgeStyle;rounded=0;orthogonalLoop=1;jettySize=auto;html=1;exitX=1;exitY=0.5;exitDx=0;exitDy=0;entryX=0.5;entryY=0;entryDx=0;entryDy=0;" parent="1" source="SXAzHjsnaT3QSdxms3eh-1" target="SXAzHjsnaT3QSdxms3eh-41" edge="1">
          <mxGeometry relative="1" as="geometry" />
        </mxCell>
        <mxCell id="SXAzHjsnaT3QSdxms3eh-1" value="Platform simulator" style="rounded=0;whiteSpace=wrap;html=1;" parent="1" vertex="1">
          <mxGeometry x="270" y="110" width="186" height="60" as="geometry" />
        </mxCell>
        <mxCell id="SXAzHjsnaT3QSdxms3eh-2" value="User A" style="shape=umlActor;verticalLabelPosition=bottom;verticalAlign=top;html=1;outlineConnect=0;" parent="1" vertex="1">
          <mxGeometry x="240" y="18" width="30" height="60" as="geometry" />
        </mxCell>
        <mxCell id="SXAzHjsnaT3QSdxms3eh-3" value="User B" style="shape=umlActor;verticalLabelPosition=bottom;verticalAlign=top;html=1;outlineConnect=0;" parent="1" vertex="1">
          <mxGeometry x="446" y="18" width="30" height="60" as="geometry" />
        </mxCell>
        <mxCell id="SXAzHjsnaT3QSdxms3eh-52" style="edgeStyle=orthogonalEdgeStyle;rounded=0;orthogonalLoop=1;jettySize=auto;html=1;exitX=1;exitY=0.5;exitDx=0;exitDy=0;entryX=0.5;entryY=1;entryDx=0;entryDy=0;dashed=1;" parent="1" source="SXAzHjsnaT3QSdxms3eh-5" target="SXAzHjsnaT3QSdxms3eh-41" edge="1">
          <mxGeometry relative="1" as="geometry" />
        </mxCell>
        <mxCell id="SXAzHjsnaT3QSdxms3eh-5" value="Trino" style="rounded=0;whiteSpace=wrap;html=1;" parent="1" vertex="1">
          <mxGeometry x="220" y="260" width="290" height="60" as="geometry" />
        </mxCell>
        <mxCell id="SXAzHjsnaT3QSdxms3eh-36" style="edgeStyle=orthogonalEdgeStyle;rounded=0;orthogonalLoop=1;jettySize=auto;html=1;exitX=0.5;exitY=1;exitDx=0;exitDy=0;" parent="1" source="SXAzHjsnaT3QSdxms3eh-6" target="SXAzHjsnaT3QSdxms3eh-34" edge="1">
          <mxGeometry relative="1" as="geometry">
            <mxPoint x="180" y="300" as="targetPoint" />
            <Array as="points">
              <mxPoint x="80" y="290" />
            </Array>
          </mxGeometry>
        </mxCell>
        <mxCell id="SXAzHjsnaT3QSdxms3eh-6" value="Edge module" style="rounded=0;whiteSpace=wrap;html=1;" parent="1" vertex="1">
          <mxGeometry x="20" y="170" width="120" height="60" as="geometry" />
        </mxCell>
        <mxCell id="SXAzHjsnaT3QSdxms3eh-8" value="Table A" style="shape=table;startSize=30;container=1;collapsible=0;childLayout=tableLayout;strokeColor=default;fontSize=16;" parent="1" vertex="1">
          <mxGeometry x="220" y="340" width="70" height="70" as="geometry" />
        </mxCell>
        <mxCell id="SXAzHjsnaT3QSdxms3eh-9" value="" style="shape=tableRow;horizontal=0;startSize=0;swimlaneHead=0;swimlaneBody=0;strokeColor=inherit;top=0;left=0;bottom=0;right=0;collapsible=0;dropTarget=0;fillColor=none;points=[[0,0.5],[1,0.5]];portConstraint=eastwest;fontSize=16;" parent="SXAzHjsnaT3QSdxms3eh-8" vertex="1">
          <mxGeometry y="30" width="70" height="13" as="geometry" />
        </mxCell>
        <mxCell id="SXAzHjsnaT3QSdxms3eh-10" value="" style="shape=partialRectangle;html=1;whiteSpace=wrap;connectable=0;strokeColor=inherit;overflow=hidden;fillColor=none;top=0;left=0;bottom=0;right=0;pointerEvents=1;fontSize=16;" parent="SXAzHjsnaT3QSdxms3eh-9" vertex="1">
          <mxGeometry width="23" height="13" as="geometry">
            <mxRectangle width="23" height="13" as="alternateBounds" />
          </mxGeometry>
        </mxCell>
        <mxCell id="SXAzHjsnaT3QSdxms3eh-11" value="" style="shape=partialRectangle;html=1;whiteSpace=wrap;connectable=0;strokeColor=inherit;overflow=hidden;fillColor=none;top=0;left=0;bottom=0;right=0;pointerEvents=1;fontSize=16;" parent="SXAzHjsnaT3QSdxms3eh-9" vertex="1">
          <mxGeometry x="23" width="24" height="13" as="geometry">
            <mxRectangle width="24" height="13" as="alternateBounds" />
          </mxGeometry>
        </mxCell>
        <mxCell id="SXAzHjsnaT3QSdxms3eh-12" value="" style="shape=partialRectangle;html=1;whiteSpace=wrap;connectable=0;strokeColor=inherit;overflow=hidden;fillColor=none;top=0;left=0;bottom=0;right=0;pointerEvents=1;fontSize=16;" parent="SXAzHjsnaT3QSdxms3eh-9" vertex="1">
          <mxGeometry x="47" width="23" height="13" as="geometry">
            <mxRectangle width="23" height="13" as="alternateBounds" />
          </mxGeometry>
        </mxCell>
        <mxCell id="SXAzHjsnaT3QSdxms3eh-13" value="" style="shape=tableRow;horizontal=0;startSize=0;swimlaneHead=0;swimlaneBody=0;strokeColor=inherit;top=0;left=0;bottom=0;right=0;collapsible=0;dropTarget=0;fillColor=none;points=[[0,0.5],[1,0.5]];portConstraint=eastwest;fontSize=16;" parent="SXAzHjsnaT3QSdxms3eh-8" vertex="1">
          <mxGeometry y="43" width="70" height="14" as="geometry" />
        </mxCell>
        <mxCell id="SXAzHjsnaT3QSdxms3eh-14" value="" style="shape=partialRectangle;html=1;whiteSpace=wrap;connectable=0;strokeColor=inherit;overflow=hidden;fillColor=none;top=0;left=0;bottom=0;right=0;pointerEvents=1;fontSize=16;" parent="SXAzHjsnaT3QSdxms3eh-13" vertex="1">
          <mxGeometry width="23" height="14" as="geometry">
            <mxRectangle width="23" height="14" as="alternateBounds" />
          </mxGeometry>
        </mxCell>
        <mxCell id="SXAzHjsnaT3QSdxms3eh-15" value="" style="shape=partialRectangle;html=1;whiteSpace=wrap;connectable=0;strokeColor=inherit;overflow=hidden;fillColor=none;top=0;left=0;bottom=0;right=0;pointerEvents=1;fontSize=16;" parent="SXAzHjsnaT3QSdxms3eh-13" vertex="1">
          <mxGeometry x="23" width="24" height="14" as="geometry">
            <mxRectangle width="24" height="14" as="alternateBounds" />
          </mxGeometry>
        </mxCell>
        <mxCell id="SXAzHjsnaT3QSdxms3eh-16" value="" style="shape=partialRectangle;html=1;whiteSpace=wrap;connectable=0;strokeColor=inherit;overflow=hidden;fillColor=none;top=0;left=0;bottom=0;right=0;pointerEvents=1;fontSize=16;" parent="SXAzHjsnaT3QSdxms3eh-13" vertex="1">
          <mxGeometry x="47" width="23" height="14" as="geometry">
            <mxRectangle width="23" height="14" as="alternateBounds" />
          </mxGeometry>
        </mxCell>
        <mxCell id="SXAzHjsnaT3QSdxms3eh-17" value="" style="shape=tableRow;horizontal=0;startSize=0;swimlaneHead=0;swimlaneBody=0;strokeColor=inherit;top=0;left=0;bottom=0;right=0;collapsible=0;dropTarget=0;fillColor=none;points=[[0,0.5],[1,0.5]];portConstraint=eastwest;fontSize=16;" parent="SXAzHjsnaT3QSdxms3eh-8" vertex="1">
          <mxGeometry y="57" width="70" height="13" as="geometry" />
        </mxCell>
        <mxCell id="SXAzHjsnaT3QSdxms3eh-18" value="" style="shape=partialRectangle;html=1;whiteSpace=wrap;connectable=0;strokeColor=inherit;overflow=hidden;fillColor=none;top=0;left=0;bottom=0;right=0;pointerEvents=1;fontSize=16;" parent="SXAzHjsnaT3QSdxms3eh-17" vertex="1">
          <mxGeometry width="23" height="13" as="geometry">
            <mxRectangle width="23" height="13" as="alternateBounds" />
          </mxGeometry>
        </mxCell>
        <mxCell id="SXAzHjsnaT3QSdxms3eh-19" value="" style="shape=partialRectangle;html=1;whiteSpace=wrap;connectable=0;strokeColor=inherit;overflow=hidden;fillColor=none;top=0;left=0;bottom=0;right=0;pointerEvents=1;fontSize=16;" parent="SXAzHjsnaT3QSdxms3eh-17" vertex="1">
          <mxGeometry x="23" width="24" height="13" as="geometry">
            <mxRectangle width="24" height="13" as="alternateBounds" />
          </mxGeometry>
        </mxCell>
        <mxCell id="SXAzHjsnaT3QSdxms3eh-20" value="" style="shape=partialRectangle;html=1;whiteSpace=wrap;connectable=0;strokeColor=inherit;overflow=hidden;fillColor=none;top=0;left=0;bottom=0;right=0;pointerEvents=1;fontSize=16;" parent="SXAzHjsnaT3QSdxms3eh-17" vertex="1">
          <mxGeometry x="47" width="23" height="13" as="geometry">
            <mxRectangle width="23" height="13" as="alternateBounds" />
          </mxGeometry>
        </mxCell>
        <mxCell id="SXAzHjsnaT3QSdxms3eh-21" value="Table B" style="shape=table;startSize=30;container=1;collapsible=0;childLayout=tableLayout;strokeColor=default;fontSize=16;" parent="1" vertex="1">
          <mxGeometry x="436" y="340" width="70" height="70" as="geometry" />
        </mxCell>
        <mxCell id="SXAzHjsnaT3QSdxms3eh-22" value="" style="shape=tableRow;horizontal=0;startSize=0;swimlaneHead=0;swimlaneBody=0;strokeColor=inherit;top=0;left=0;bottom=0;right=0;collapsible=0;dropTarget=0;fillColor=none;points=[[0,0.5],[1,0.5]];portConstraint=eastwest;fontSize=16;" parent="SXAzHjsnaT3QSdxms3eh-21" vertex="1">
          <mxGeometry y="30" width="70" height="13" as="geometry" />
        </mxCell>
        <mxCell id="SXAzHjsnaT3QSdxms3eh-23" value="" style="shape=partialRectangle;html=1;whiteSpace=wrap;connectable=0;strokeColor=inherit;overflow=hidden;fillColor=none;top=0;left=0;bottom=0;right=0;pointerEvents=1;fontSize=16;" parent="SXAzHjsnaT3QSdxms3eh-22" vertex="1">
          <mxGeometry width="23" height="13" as="geometry">
            <mxRectangle width="23" height="13" as="alternateBounds" />
          </mxGeometry>
        </mxCell>
        <mxCell id="SXAzHjsnaT3QSdxms3eh-24" value="" style="shape=partialRectangle;html=1;whiteSpace=wrap;connectable=0;strokeColor=inherit;overflow=hidden;fillColor=none;top=0;left=0;bottom=0;right=0;pointerEvents=1;fontSize=16;" parent="SXAzHjsnaT3QSdxms3eh-22" vertex="1">
          <mxGeometry x="23" width="24" height="13" as="geometry">
            <mxRectangle width="24" height="13" as="alternateBounds" />
          </mxGeometry>
        </mxCell>
        <mxCell id="SXAzHjsnaT3QSdxms3eh-25" value="" style="shape=partialRectangle;html=1;whiteSpace=wrap;connectable=0;strokeColor=inherit;overflow=hidden;fillColor=none;top=0;left=0;bottom=0;right=0;pointerEvents=1;fontSize=16;" parent="SXAzHjsnaT3QSdxms3eh-22" vertex="1">
          <mxGeometry x="47" width="23" height="13" as="geometry">
            <mxRectangle width="23" height="13" as="alternateBounds" />
          </mxGeometry>
        </mxCell>
        <mxCell id="SXAzHjsnaT3QSdxms3eh-26" value="" style="shape=tableRow;horizontal=0;startSize=0;swimlaneHead=0;swimlaneBody=0;strokeColor=inherit;top=0;left=0;bottom=0;right=0;collapsible=0;dropTarget=0;fillColor=none;points=[[0,0.5],[1,0.5]];portConstraint=eastwest;fontSize=16;" parent="SXAzHjsnaT3QSdxms3eh-21" vertex="1">
          <mxGeometry y="43" width="70" height="14" as="geometry" />
        </mxCell>
        <mxCell id="SXAzHjsnaT3QSdxms3eh-27" value="" style="shape=partialRectangle;html=1;whiteSpace=wrap;connectable=0;strokeColor=inherit;overflow=hidden;fillColor=none;top=0;left=0;bottom=0;right=0;pointerEvents=1;fontSize=16;" parent="SXAzHjsnaT3QSdxms3eh-26" vertex="1">
          <mxGeometry width="23" height="14" as="geometry">
            <mxRectangle width="23" height="14" as="alternateBounds" />
          </mxGeometry>
        </mxCell>
        <mxCell id="SXAzHjsnaT3QSdxms3eh-28" value="" style="shape=partialRectangle;html=1;whiteSpace=wrap;connectable=0;strokeColor=inherit;overflow=hidden;fillColor=none;top=0;left=0;bottom=0;right=0;pointerEvents=1;fontSize=16;" parent="SXAzHjsnaT3QSdxms3eh-26" vertex="1">
          <mxGeometry x="23" width="24" height="14" as="geometry">
            <mxRectangle width="24" height="14" as="alternateBounds" />
          </mxGeometry>
        </mxCell>
        <mxCell id="SXAzHjsnaT3QSdxms3eh-29" value="" style="shape=partialRectangle;html=1;whiteSpace=wrap;connectable=0;strokeColor=inherit;overflow=hidden;fillColor=none;top=0;left=0;bottom=0;right=0;pointerEvents=1;fontSize=16;" parent="SXAzHjsnaT3QSdxms3eh-26" vertex="1">
          <mxGeometry x="47" width="23" height="14" as="geometry">
            <mxRectangle width="23" height="14" as="alternateBounds" />
          </mxGeometry>
        </mxCell>
        <mxCell id="SXAzHjsnaT3QSdxms3eh-30" value="" style="shape=tableRow;horizontal=0;startSize=0;swimlaneHead=0;swimlaneBody=0;strokeColor=inherit;top=0;left=0;bottom=0;right=0;collapsible=0;dropTarget=0;fillColor=none;points=[[0,0.5],[1,0.5]];portConstraint=eastwest;fontSize=16;" parent="SXAzHjsnaT3QSdxms3eh-21" vertex="1">
          <mxGeometry y="57" width="70" height="13" as="geometry" />
        </mxCell>
        <mxCell id="SXAzHjsnaT3QSdxms3eh-31" value="" style="shape=partialRectangle;html=1;whiteSpace=wrap;connectable=0;strokeColor=inherit;overflow=hidden;fillColor=none;top=0;left=0;bottom=0;right=0;pointerEvents=1;fontSize=16;" parent="SXAzHjsnaT3QSdxms3eh-30" vertex="1">
          <mxGeometry width="23" height="13" as="geometry">
            <mxRectangle width="23" height="13" as="alternateBounds" />
          </mxGeometry>
        </mxCell>
        <mxCell id="SXAzHjsnaT3QSdxms3eh-32" value="" style="shape=partialRectangle;html=1;whiteSpace=wrap;connectable=0;strokeColor=inherit;overflow=hidden;fillColor=none;top=0;left=0;bottom=0;right=0;pointerEvents=1;fontSize=16;" parent="SXAzHjsnaT3QSdxms3eh-30" vertex="1">
          <mxGeometry x="23" width="24" height="13" as="geometry">
            <mxRectangle width="24" height="13" as="alternateBounds" />
          </mxGeometry>
        </mxCell>
        <mxCell id="SXAzHjsnaT3QSdxms3eh-33" value="" style="shape=partialRectangle;html=1;whiteSpace=wrap;connectable=0;strokeColor=inherit;overflow=hidden;fillColor=none;top=0;left=0;bottom=0;right=0;pointerEvents=1;fontSize=16;" parent="SXAzHjsnaT3QSdxms3eh-30" vertex="1">
          <mxGeometry x="47" width="23" height="13" as="geometry">
            <mxRectangle width="23" height="13" as="alternateBounds" />
          </mxGeometry>
        </mxCell>
        <mxCell id="SXAzHjsnaT3QSdxms3eh-34" value="" style="sketch=0;pointerEvents=1;shadow=0;dashed=0;html=1;strokeColor=none;fillColor=#505050;labelPosition=center;verticalLabelPosition=bottom;verticalAlign=top;outlineConnect=0;align=center;shape=mxgraph.office.security.lock_protected;" parent="1" vertex="1">
          <mxGeometry x="206" y="271.5" width="28" height="37" as="geometry" />
        </mxCell>
        <mxCell id="SXAzHjsnaT3QSdxms3eh-35" value="Password-based &lt;br&gt;API access" style="text;html=1;strokeColor=none;fillColor=none;align=center;verticalAlign=middle;whiteSpace=wrap;rounded=0;" parent="1" vertex="1">
          <mxGeometry x="80" y="300" width="110" height="30" as="geometry" />
        </mxCell>
        <mxCell id="SXAzHjsnaT3QSdxms3eh-38" value="" style="sketch=0;pointerEvents=1;shadow=0;dashed=0;html=1;strokeColor=none;fillColor=#505050;labelPosition=center;verticalLabelPosition=bottom;verticalAlign=top;outlineConnect=0;align=center;shape=mxgraph.office.security.lock_protected;" parent="1" vertex="1">
          <mxGeometry x="349" y="240" width="28" height="37" as="geometry" />
        </mxCell>
        <mxCell id="SXAzHjsnaT3QSdxms3eh-40" value="JWT access" style="text;html=1;strokeColor=none;fillColor=none;align=center;verticalAlign=middle;whiteSpace=wrap;rounded=0;" parent="1" vertex="1">
          <mxGeometry x="258" y="195" width="110" height="30" as="geometry" />
        </mxCell>
        <mxCell id="SXAzHjsnaT3QSdxms3eh-41" value="Keycloak" style="rounded=0;whiteSpace=wrap;html=1;" parent="1" vertex="1">
          <mxGeometry x="560" y="180" width="120" height="60" as="geometry" />
        </mxCell>
        <mxCell id="SXAzHjsnaT3QSdxms3eh-47" value="Platform" style="shape=umlLifeline;perimeter=lifelinePerimeter;whiteSpace=wrap;html=1;container=1;dropTarget=0;collapsible=0;recursiveResize=0;outlineConnect=0;portConstraint=eastwest;newEdgeStyle={&quot;edgeStyle&quot;:&quot;elbowEdgeStyle&quot;,&quot;elbow&quot;:&quot;vertical&quot;,&quot;curved&quot;:0,&quot;rounded&quot;:0};" parent="1" vertex="1">
          <mxGeometry x="120" y="500" width="100" height="300" as="geometry" />
        </mxCell>
        <mxCell id="SXAzHjsnaT3QSdxms3eh-48" value="Keycloak" style="shape=umlLifeline;perimeter=lifelinePerimeter;whiteSpace=wrap;html=1;container=1;dropTarget=0;collapsible=0;recursiveResize=0;outlineConnect=0;portConstraint=eastwest;newEdgeStyle={&quot;edgeStyle&quot;:&quot;elbowEdgeStyle&quot;,&quot;elbow&quot;:&quot;vertical&quot;,&quot;curved&quot;:0,&quot;rounded&quot;:0};" parent="1" vertex="1">
          <mxGeometry x="237" y="500" width="100" height="300" as="geometry" />
        </mxCell>
        <mxCell id="SXAzHjsnaT3QSdxms3eh-49" value="Trino" style="shape=umlLifeline;perimeter=lifelinePerimeter;whiteSpace=wrap;html=1;container=1;dropTarget=0;collapsible=0;recursiveResize=0;outlineConnect=0;portConstraint=eastwest;newEdgeStyle={&quot;edgeStyle&quot;:&quot;elbowEdgeStyle&quot;,&quot;elbow&quot;:&quot;vertical&quot;,&quot;curved&quot;:0,&quot;rounded&quot;:0};" parent="1" vertex="1">
          <mxGeometry x="356" y="500" width="100" height="300" as="geometry" />
        </mxCell>
        <mxCell id="SXAzHjsnaT3QSdxms3eh-56" value="" style="shape=umlLifeline;perimeter=lifelinePerimeter;whiteSpace=wrap;html=1;container=1;dropTarget=0;collapsible=0;recursiveResize=0;outlineConnect=0;portConstraint=eastwest;newEdgeStyle={&quot;edgeStyle&quot;:&quot;elbowEdgeStyle&quot;,&quot;elbow&quot;:&quot;vertical&quot;,&quot;curved&quot;:0,&quot;rounded&quot;:0};participant=umlActor;" parent="1" vertex="1">
          <mxGeometry x="50" y="480" width="25" height="320" as="geometry" />
        </mxCell>
        <mxCell id="SXAzHjsnaT3QSdxms3eh-57" value="" style="html=1;verticalAlign=bottom;endArrow=block;edgeStyle=elbowEdgeStyle;elbow=vertical;curved=0;rounded=0;" parent="1" target="SXAzHjsnaT3QSdxms3eh-47" edge="1">
          <mxGeometry width="80" relative="1" as="geometry">
            <mxPoint x="60" y="570" as="sourcePoint" />
            <mxPoint x="140" y="570" as="targetPoint" />
          </mxGeometry>
        </mxCell>
        <mxCell id="SXAzHjsnaT3QSdxms3eh-58" value="" style="html=1;verticalAlign=bottom;endArrow=block;edgeStyle=elbowEdgeStyle;elbow=vertical;curved=0;rounded=0;" parent="1" target="SXAzHjsnaT3QSdxms3eh-48" edge="1">
          <mxGeometry width="80" relative="1" as="geometry">
            <mxPoint x="170" y="585" as="sourcePoint" />
            <mxPoint x="280" y="585" as="targetPoint" />
          </mxGeometry>
        </mxCell>
        <mxCell id="SXAzHjsnaT3QSdxms3eh-59" value="" style="html=1;verticalAlign=bottom;endArrow=block;edgeStyle=elbowEdgeStyle;elbow=vertical;curved=0;rounded=0;" parent="1" target="SXAzHjsnaT3QSdxms3eh-47" edge="1">
          <mxGeometry width="80" relative="1" as="geometry">
            <mxPoint x="286.5" y="610" as="sourcePoint" />
            <mxPoint x="190" y="610" as="targetPoint" />
          </mxGeometry>
        </mxCell>
        <mxCell id="SXAzHjsnaT3QSdxms3eh-60" value="Logged User" style="shape=umlActor;verticalLabelPosition=bottom;verticalAlign=top;html=1;" parent="1" vertex="1">
          <mxGeometry x="20" y="588" width="20" height="35" as="geometry" />
        </mxCell>
        <mxCell id="SXAzHjsnaT3QSdxms3eh-61" value="" style="html=1;verticalAlign=bottom;endArrow=block;edgeStyle=elbowEdgeStyle;elbow=vertical;curved=0;rounded=0;" parent="1" edge="1">
          <mxGeometry width="80" relative="1" as="geometry">
            <mxPoint x="60" y="649.5" as="sourcePoint" />
            <mxPoint x="170" y="650" as="targetPoint" />
          </mxGeometry>
        </mxCell>
        <mxCell id="SXAzHjsnaT3QSdxms3eh-62" value="" style="html=1;verticalAlign=bottom;endArrow=block;edgeStyle=elbowEdgeStyle;elbow=vertical;curved=0;rounded=0;" parent="1" target="SXAzHjsnaT3QSdxms3eh-47" edge="1">
          <mxGeometry width="80" relative="1" as="geometry">
            <mxPoint x="406.5" y="686" as="sourcePoint" />
            <mxPoint x="290" y="686" as="targetPoint" />
          </mxGeometry>
        </mxCell>
        <mxCell id="SXAzHjsnaT3QSdxms3eh-65" value="Insert credentials" style="text;html=1;strokeColor=none;fillColor=none;align=center;verticalAlign=middle;whiteSpace=wrap;rounded=0;" parent="1" vertex="1">
          <mxGeometry x="290" y="580" width="105" height="30" as="geometry" />
        </mxCell>
        <mxCell id="SXAzHjsnaT3QSdxms3eh-66" value="Token" style="text;html=1;strokeColor=none;fillColor=none;align=center;verticalAlign=middle;whiteSpace=wrap;rounded=0;" parent="1" vertex="1">
          <mxGeometry x="198" y="586" width="60" height="30" as="geometry" />
        </mxCell>
        <mxCell id="SXAzHjsnaT3QSdxms3eh-68" value="Token" style="text;html=1;strokeColor=none;fillColor=none;align=center;verticalAlign=middle;whiteSpace=wrap;rounded=0;" parent="1" vertex="1">
          <mxGeometry x="210" y="635" width="60" height="30" as="geometry" />
        </mxCell>
        <mxCell id="SXAzHjsnaT3QSdxms3eh-69" value="" style="html=1;verticalAlign=bottom;endArrow=block;edgeStyle=elbowEdgeStyle;elbow=vertical;curved=0;rounded=0;" parent="1" target="SXAzHjsnaT3QSdxms3eh-49" edge="1">
          <mxGeometry width="80" relative="1" as="geometry">
            <mxPoint x="173" y="660" as="sourcePoint" />
            <mxPoint x="283" y="660" as="targetPoint" />
          </mxGeometry>
        </mxCell>
        <mxCell id="SXAzHjsnaT3QSdxms3eh-70" value="" style="html=1;verticalAlign=bottom;endArrow=block;edgeStyle=elbowEdgeStyle;elbow=vertical;curved=0;rounded=0;" parent="1" edge="1">
          <mxGeometry width="80" relative="1" as="geometry">
            <mxPoint x="169.5" y="704" as="sourcePoint" />
            <mxPoint x="62" y="704" as="targetPoint" />
          </mxGeometry>
        </mxCell>
      </root>
    </mxGraphModel>
  </diagram>
</mxfile>
